Coordinates
version=1
nRows=43
nColumns=38
inDegrees=no

Units are S.I. units (second, meters, Newtons, ...)
If the header above contains a line with 'inDegrees', this indicates whether rotational values are in degrees (yes) or radians (no).

endheader
time	pelvis_tilt	pelvis_list	pelvis_rotation	pelvis_tx	pelvis_ty	pelvis_tz	hip_flexion_r	hip_adduction_r	hip_rotation_r	knee_angle_r	ankle_angle_r	subtalar_angle_r	mtp_angle_r	hip_flexion_l	hip_adduction_l	hip_rotation_l	knee_angle_l	ankle_angle_l	subtalar_angle_l	mtp_angle_l	lumbar_extension	lumbar_bending	lumbar_rotation	arm_flex_r	arm_add_r	arm_rot_r	elbow_flex_r	pro_sup_r	wrist_flex_r	wrist_dev_r	arm_flex_l	arm_add_l	arm_rot_l	elbow_flex_l	pro_sup_l	wrist_flex_l	wrist_dev_l
10	1.98439	1.47655	-0.341145	0.783739	1.13467	0.967505	0.00767424	0.125505	-0.21229	0.427531	0.234915	0	0	0.253525	-0.0761982	-0.142098	0	0.0730854	0	0	-0.0378691	0.12831	-0.0148221	1.04398	-0.0745329	-1.5708	0	0	0	0	0.805016	-0.248724	0.487412	0.784643	1.5708	0	0
10.01	2.00568	1.47653	-0.360883	0.784224	1.1301	0.968528	0.00850338	0.125723	-0.21418	0.422006	0.228787	0	0	0.251671	-0.0760936	-0.147284	0	0.0647396	0	0	-0.0424761	0.128733	-0.017268	1.04649	-0.0701194	-1.5708	0	0	0	0	0.80837	-0.250909	0.486748	0.779966	1.5708	0	0
10.02	2.02986	1.47714	-0.383261	0.784537	1.12563	0.969632	0.00938305	0.12496	-0.216377	0.416865	0.22246	0	0	0.248771	-0.0751959	-0.151079	0	0.0543304	0	0	-0.0469056	0.12825	-0.0197229	1.04831	-0.0667711	-1.5708	0	0	0	0	0.812128	-0.253297	0.489858	0.774342	1.5708	0	0
10.03	2.05474	1.47818	-0.40603	0.78487	1.12131	0.970789	0.0105281	0.123437	-0.219062	0.412151	0.216017	0	0	0.245039	-0.0737191	-0.153308	0	0.0438756	0	0	-0.0508452	0.127074	-0.0221797	1.04932	-0.0645814	-1.5708	0	0	0	0	0.816042	-0.256057	0.497477	0.768795	1.5708	0	0
10.04	2.08238	1.4798	-0.432405	0.785568	1.1171	0.971999	0.01172	0.121538	-0.221225	0.407783	0.209091	0	0	0.241083	-0.0725568	-0.153136	0.00266513	0.0353072	0	0	-0.0541937	0.12471	-0.0259962	1.04926	-0.0579567	-1.5708	0	0	0	0	0.819188	-0.260644	0.506856	0.762885	1.5708	0	0
10.05	2.11777	1.48104	-0.463602	0.785322	1.11274	0.973213	0.0125448	0.118708	-0.225383	0.40361	0.20332	0	0	0.240392	-0.0702999	-0.155656	0.0142964	0.032848	0	0	-0.0588996	0.123041	-0.0275653	1.0506	-0.0625224	-1.5708	0	0	0	0	0.823306	-0.261407	0.516314	0.762002	1.5708	0	0
10.06	2.15109	1.48239	-0.493732	0.785418	1.1084	0.974401	0.0137164	0.11616	-0.228872	0.399729	0.19703	0	0	0.240828	-0.0693269	-0.157982	0.0307311	0.0343236	0	0	-0.0629696	0.12094	-0.0306601	1.05146	-0.0620806	-1.5708	0	0	0	0	0.826091	-0.26385	0.52334	0.76123	1.5708	0	0
10.07	2.18109	1.48371	-0.520949	0.785526	1.10418	0.975544	0.0151596	0.113631	-0.231995	0.395797	0.190934	0	0	0.241114	-0.0687194	-0.159216	0.048022	0.0377776	0	0	-0.0664676	0.119014	-0.0335684	1.05176	-0.0619798	-1.5708	0	0	0	0	0.827391	-0.266303	0.528228	0.761922	1.5708	0	0
10.08	2.20846	1.48504	-0.545991	0.785656	1.10005	0.97662	0.0166554	0.111148	-0.234845	0.391671	0.184974	0	0	0.241145	-0.0684046	-0.159614	0.065793	0.0416267	0	0	-0.0695115	0.117125	-0.0360768	1.05122	-0.0623822	-1.5708	0	0	0	0	0.827471	-0.268746	0.532496	0.763643	1.5708	0	0
10.09	2.23352	1.48627	-0.569213	0.785755	1.09601	0.977608	0.0179741	0.108965	-0.237395	0.387081	0.179398	0	0	0.240652	-0.0684908	-0.158308	0.0834916	0.0448021	0	0	-0.0722421	0.115303	-0.0380985	1.05012	-0.0630582	-1.5708	0	0	0	0	0.826934	-0.271073	0.537112	0.765345	1.5708	0	0
10.1	2.25596	1.48737	-0.59032	0.785865	1.09201	0.978494	0.01909	0.10721	-0.239007	0.38215	0.174159	0	0	0.239707	-0.0690549	-0.155546	0.10132	0.0472355	0	0	-0.074752	0.113612	-0.0395517	1.04927	-0.063744	-1.5708	0	0	0	0	0.826494	-0.273135	0.542477	0.766139	1.5708	0	0
10.11	2.27626	1.48842	-0.609797	0.786027	1.08817	0.979277	0.0200393	0.105531	-0.240376	0.376782	0.169046	0	0	0.238487	-0.0699072	-0.15193	0.119531	0.0493981	0	0	-0.0769942	0.112002	-0.040486	1.04902	-0.0643163	-1.5708	0	0	0	0	0.826241	-0.274755	0.547402	0.765875	1.5708	0	0
10.12	2.29635	1.48948	-0.629547	0.786154	1.08434	0.979931	0.0206752	0.10379	-0.241594	0.370938	0.164561	0	0	0.236843	-0.0708941	-0.147844	0.138098	0.0515515	0	0	-0.0790934	0.110362	-0.041162	1.0493	-0.0646225	-1.5708	0	0	0	0	0.82599	-0.276068	0.551177	0.76481	1.5708	0	0
10.13	2.31425	1.49053	-0.647451	0.786286	1.0806	0.980427	0.021036	0.102252	-0.242512	0.364458	0.160781	0	0	0.234945	-0.072094	-0.143272	0.15695	0.05407	0	0	-0.0808821	0.108794	-0.0416106	1.05006	-0.0647367	-1.5708	0	0	0	0	0.825704	-0.277131	0.554192	0.763493	1.5708	0	0
10.14	2.32921	1.49168	-0.662737	0.786357	1.07685	0.980773	0.0214537	0.100867	-0.242869	0.357704	0.157806	0	0	0.23298	-0.0734438	-0.138268	0.176077	0.0570698	0	0	-0.0823002	0.107257	-0.0418223	1.05113	-0.0648618	-1.5708	0	0	0	0	0.825448	-0.278072	0.556151	0.762725	1.5708	0	0
10.15	2.34218	1.49301	-0.676243	0.786516	1.07324	0.980984	0.0220695	0.0994766	-0.242462	0.350907	0.15566	0	0	0.230997	-0.0746996	-0.132854	0.195435	0.0611248	0	0	-0.0833134	0.105613	-0.0420529	1.05207	-0.0648189	-1.5708	0	0	0	0	0.825148	-0.279147	0.5566	0.762959	1.5708	0	0
10.16	2.35245	1.4944	-0.687266	0.786614	1.06964	0.981068	0.0231381	0.0982115	-0.241569	0.344888	0.154317	0	0	0.22898	-0.0761328	-0.12756	0.215144	0.0667123	0	0	-0.0839586	0.104069	-0.0423271	1.05291	-0.0644671	-1.5708	0	0	0	0	0.824579	-0.280612	0.555706	0.764017	1.5708	0	0
10.17	2.35906	1.49542	-0.694832	0.786751	1.06614	0.98104	0.0249004	0.0973182	-0.240627	0.340612	0.153392	0	0	0.226689	-0.0780719	-0.122303	0.235099	0.0737324	0	0	-0.0844707	0.103074	-0.0424709	1.05378	-0.0640124	-1.5708	0	0	0	0	0.82376	-0.282327	0.554005	0.765335	1.5708	0	0
10.18	2.36126	1.49567	-0.697938	0.786846	1.06266	0.980976	0.0271267	0.0971079	-0.239367	0.337948	0.152969	0	0	0.223893	-0.0807947	-0.116595	0.255178	0.0817209	0	0	-0.0850343	0.102988	-0.0426954	1.05436	-0.0635157	-1.5708	0	0	0	0	0.822747	-0.284254	0.552051	0.766495	1.5708	0	0
10.19	2.36178	1.49508	-0.699323	0.786812	1.05928	0.980944	0.029793	0.097301	-0.237987	0.337108	0.153252	0	0	0.22035	-0.0842549	-0.110993	0.275237	0.0901002	0	0	-0.0858941	0.103814	-0.0430281	1.05472	-0.0627954	-1.5708	0	0	0	0	0.821312	-0.286307	0.549861	0.767792	1.5708	0	0
10.2	2.36142	1.49382	-0.69908	0.786668	1.05585	0.980932	0.0329357	0.0972871	-0.237064	0.338203	0.154261	0	0	0.216188	-0.0876355	-0.106871	0.294779	0.0985917	0	0	-0.0873303	0.105693	-0.0423096	1.05557	-0.0666103	-1.5708	0	0	0	0	0.819655	-0.287415	0.547529	0.770659	1.5708	0	0
10.21	2.35431	1.49423	-0.698978	0.788813	1.05309	0.980968	0.0378604	0.0994184	-0.227898	0.340715	0.150599	0	0	0.209821	-0.093433	-0.0985325	0.312159	0.10326	0	0	-0.0849133	0.105133	-0.0531965	1.05385	-0.034934	-1.5708	0	0	0	0	0.811783	-0.303746	0.54217	0.762295	1.5708	0	0
10.22	2.35726	1.49244	-0.700485	0.78797	1.04972	0.981009	0.041794	0.0988062	-0.229897	0.344825	0.153964	0	0	0.204426	-0.0963542	-0.0965275	0.330147	0.111303	0	0	-0.086586	0.106517	-0.047829	1.05277	-0.0465399	-1.5708	0	0	0	0	0.810908	-0.298509	0.541863	0.770702	1.5708	0	0
10.23	2.35174	1.49311	-0.698288	0.788918	1.04698	0.981011	0.0479068	0.0986702	-0.224626	0.349184	0.152669	0	0	0.197784	-0.0995013	-0.092457	0.344601	0.11581	0	0	-0.0842484	0.106492	-0.0538461	1.05131	-0.0328289	-1.5708	0	0	0	0	0.80366	-0.308613	0.539103	0.768911	1.5708	0	0
10.24	2.35168	1.49239	-0.696572	0.788235	1.04382	0.981038	0.0531431	0.0971083	-0.227359	0.353883	0.154231	0	0	0.191545	-0.101384	-0.0920764	0.359388	0.122175	0	0	-0.0841305	0.106895	-0.0480246	1.04855	-0.0450862	-1.5708	0	0	0	0	0.801502	-0.302858	0.539279	0.779053	1.5708	0	0
10.25	2.34844	1.4928	-0.694213	0.788232	1.04105	0.981084	0.0589461	0.096334	-0.226572	0.357696	0.151944	0	0	0.184123	-0.103584	-0.0908541	0.371748	0.127515	0	0	-0.0820246	0.106683	-0.0487179	1.04599	-0.0421599	-1.5708	0	0	0	0	0.795794	-0.305176	0.534995	0.783711	1.5708	0	0
10.26	2.34767	1.49296	-0.693959	0.788043	1.03833	0.981157	0.0640828	0.0957929	-0.226068	0.360719	0.148884	0	0	0.175796	-0.105654	-0.0903335	0.382786	0.133884	0	0	-0.0803718	0.106602	-0.0494955	1.04416	-0.0395553	-1.5708	0	0	0	0	0.790128	-0.30663	0.527621	0.78904	1.5708	0	0
10.27	2.34949	1.49278	-0.695859	0.787961	1.03575	0.981232	0.0686182	0.0953632	-0.225712	0.363354	0.145679	0	0	0.166681	-0.107537	-0.0900216	0.392736	0.14128	0	0	-0.0792344	0.106591	-0.0508531	1.04296	-0.0371309	-1.5708	0	0	0	0	0.784786	-0.307696	0.519223	0.794119	1.5708	0	0
10.28	2.31883	1.50315	-0.655105	0.786302	1.03114	0.981159	0.0863888	0.0851244	-0.233804	0.370479	0.143583	0	0	0.165956	-0.103148	-0.11007	0.385024	0.134603	0	0	-0.0730126	0.100152	-0.0586959	1.04377	-0.0420973	-1.5708	0	0	0	0	0.783443	-0.305718	0.512364	0.800612	1.5708	0	0
10.29	2.35466	1.49366	-0.701155	0.787644	1.03053	0.981327	0.0776705	0.0939646	-0.224795	0.368289	0.13887	0	0	0.147228	-0.110038	-0.0891208	0.409161	0.155573	0	0	-0.075461	0.104957	-0.0560484	1.03926	-0.0293802	-1.5708	0	0	0	0	0.774107	-0.311484	0.506963	0.800708	1.5708	0	0
10.3	2.37167	1.49212	-0.714046	0.785869	1.02795	0.981476	0.0797221	0.092414	-0.227082	0.369821	0.136807	0	0	0.136448	-0.110455	-0.0907888	0.416212	0.162653	0	0	-0.0767861	0.105718	-0.0526156	1.03853	-0.0448335	-1.5708	0	0	0	0	0.772696	-0.304939	0.505865	0.809844	1.5708	0	0
10.31	2.37893	1.49216	-0.720131	0.7855	1.02556	0.981527	0.0841405	0.0910653	-0.228	0.373305	0.133666	0	0	0.125804	-0.111213	-0.0904138	0.422181	0.167719	0	0	-0.0753301	0.104969	-0.0543473	1.03634	-0.044191	-1.5708	0	0	0	0	0.769132	-0.304586	0.503311	0.813227	1.5708	0	0
10.32	2.38401	1.49256	-0.723928	0.785046	1.02314	0.981564	0.0891645	0.0893517	-0.22903	0.377169	0.130361	0	0	0.115381	-0.111584	-0.0896397	0.42713	0.172413	0	0	-0.0735545	0.104086	-0.0560465	1.03411	-0.0439235	-1.5708	0	0	0	0	0.765595	-0.303744	0.499124	0.817824	1.5708	0	0
10.33	2.37496	1.50463	-0.706217	0.784373	1.01913	0.981557	0.107622	0.0768663	-0.236309	0.386123	0.126952	0	0	0.111202	-0.105638	-0.109481	0.410372	0.161393	0	0	-0.0661818	0.094681	-0.0677278	1.03312	-0.0382706	-1.5708	0	0	0	0	0.763826	-0.304455	0.492017	0.821692	1.5708	0	0
10.34	2.38058	1.49445	-0.717693	0.783951	1.01832	0.9815	0.101535	0.0851321	-0.231355	0.386467	0.124286	0	0	0.0956461	-0.111365	-0.0864889	0.434113	0.181188	0	0	-0.0688517	0.102285	-0.0604527	1.03083	-0.0443503	-1.5708	0	0	0	0	0.758442	-0.300495	0.4853	0.830331	1.5708	0	0
10.35	2.38025	1.49398	-0.715567	0.783251	1.01587	0.981543	0.10607	0.084182	-0.232112	0.389955	0.120825	0	0	0.0847351	-0.111962	-0.0841341	0.436553	0.185163	0	0	-0.0682516	0.102582	-0.0633618	1.03088	-0.0454981	-1.5708	0	0	0	0	0.756317	-0.29785	0.479351	0.835363	1.5708	0	0
10.36	2.37375	1.4945	-0.707508	0.782512	1.01343	0.981505	0.111967	0.0825988	-0.232533	0.394247	0.118082	0	0	0.0747519	-0.11176	-0.0814953	0.437962	0.188074	0	0	-0.0667733	0.102406	-0.0663283	1.03153	-0.0470493	-1.5708	0	0	0	0	0.754992	-0.294737	0.476147	0.838036	1.5708	0	0
10.37	2.36088	1.49516	-0.692987	0.781717	1.01101	0.981403	0.118078	0.0812225	-0.233392	0.397924	0.115497	0	0	0.0652738	-0.111562	-0.0780922	0.438732	0.190835	0	0	-0.0647974	0.102432	-0.0695083	1.03296	-0.0489937	-1.5708	0	0	0	0	0.754461	-0.291356	0.47594	0.83876	1.5708	0	0
10.38	2.34281	1.49578	-0.673182	0.78082	1.00857	0.981262	0.124073	0.080069	-0.23469	0.400934	0.112905	0	0	0.0561294	-0.111433	-0.0745227	0.438734	0.193777	0	0	-0.0624706	0.102714	-0.0728529	1.03509	-0.0513188	-1.5708	0	0	0	0	0.754491	-0.287876	0.477354	0.838856	1.5708	0	0
10.39	2.31882	1.49638	-0.647303	0.779847	1.00612	0.981099	0.130025	0.0790656	-0.236352	0.403119	0.110199	0	0	0.0474898	-0.111372	-0.0704388	0.438102	0.19673	0	0	-0.0598294	0.103282	-0.0765475	1.03776	-0.0541599	-1.5708	0	0	0	0	0.754537	-0.284283	0.478004	0.839536	1.5708	0	0
10.4	2.28703	1.49664	-0.613479	0.778841	1.00358	0.980948	0.135793	0.0785756	-0.238485	0.404236	0.107107	0	0	0.0393107	-0.111624	-0.0654546	0.436501	0.199388	0	0	-0.0569986	0.104388	-0.0805046	1.0403	-0.0576948	-1.5708	0	0	0	0	0.754381	-0.280537	0.477455	0.840736	1.5708	0	0
10.41	2.24773	1.4964	-0.571768	0.777808	1.00102	0.980813	0.141296	0.0787019	-0.241616	0.404458	0.103685	0	0	0.0316856	-0.112353	-0.0595925	0.434385	0.200693	0	0	-0.0539688	0.106091	-0.0849288	1.04199	-0.0615196	-1.5708	0	0	0	0	0.75385	-0.277019	0.477011	0.842201	1.5708	0	0
10.42	2.20351	1.49555	-0.524957	0.776811	0.998469	0.980693	0.146638	0.0793162	-0.24545	0.40422	0.100092	0	0	0.0242542	-0.113575	-0.0536252	0.430976	0.198505	0	0	-0.0509145	0.108411	-0.0893252	1.043	-0.0653048	-1.5708	0	0	0	0	0.753109	-0.273715	0.477582	0.843308	1.5708	0	0
